<?xml version="1.0" encoding="utf-8"?>
<!-- Generator: Adobe Illustrator 23.1.1, SVG Export Plug-In . SVG Version: 6.00 Build 0)  -->
<svg version="1.1" id="Layer_1" xmlns="http://www.w3.org/2000/svg" xmlns:xlink="http://www.w3.org/1999/xlink" x="0px" y="0px"
	 viewBox="0 0 161.5 53.3" style="enable-background:new 0 0 161.5 53.3;" xml:space="preserve">
<style type="text/css">
	.st0{fill:#27AAE1;}
	.st1{fill:#414042;}
	.st2{fill:#58595B;}
</style>
<g>
	<g>
		<g>
			<path class="st0" d="M161.5,24.8c0,3-2.5,5.5-5.5,5.5c-3,0-5.5-2.5-5.5-5.5s2.5-5.5,5.5-5.5C159,19.3,161.5,21.8,161.5,24.8z"/>
			<g>
				<g>
					<path class="st1" d="M0,9.8h4.8v2.3c0,0.8-0.1,1.4-0.1,1.4h0.1c1-2,3.4-4.2,6.6-4.2c3.1,0,5.1,1.4,5.9,4.2h0.1
						c1.1-2.2,3.7-4.2,6.9-4.2c4.2,0,6.6,2.4,6.6,7.7v13h-5V18c0-2.3-0.4-4-2.8-4c-2.6,0-4.3,2.1-4.9,4.6C18,19.3,18,20.2,18,21.2
						V30h-5V18c0-2.2-0.4-4-2.7-4c-2.6,0-4.3,2.1-4.9,4.6C5.1,19.3,5,20.2,5,21.2V30H0V9.8z"/>
					<path class="st1" d="M36.1,9.8h5V30h-5V9.8z"/>
					<path class="st1" d="M46.7,9.8h4.8v2.3c0,0.8-0.1,1.4-0.1,1.4h0.1c0.9-1.7,3.1-4.2,7.2-4.2c4.5,0,7,2.3,7,7.7v13h-5V18.1
						c0-2.5-0.6-4.1-3.2-4.1c-2.7,0-4.7,1.7-5.4,4.1c-0.3,0.8-0.4,1.7-0.4,2.7V30h-5V9.8z"/>
					<path class="st1" d="M78.6,9.4c4.4,0,5.8,2.6,5.8,2.6h0.1c0,0,0-0.5,0-1.1V1.9h5V30h-4.7v-1.7c0-0.8,0.1-1.3,0.1-1.3h-0.1
						c0,0-1.7,3.4-6.3,3.4c-5.5,0-8.9-4.3-8.9-10.6C69.5,13.5,73.3,9.4,78.6,9.4z M79.6,26.2c2.6,0,5.1-1.9,5.1-6.4
						c0-3.1-1.7-6.2-5-6.2c-2.8,0-5.1,2.3-5.1,6.2C74.6,23.8,76.6,26.2,79.6,26.2z"/>
					<path class="st1" d="M95.7,24c0,0,2.2,2.2,5.5,2.2c1.4,0,2.7-0.6,2.7-1.8c0-3-9.8-2.6-9.8-9.1c0-3.8,3.4-5.9,7.7-5.9
						c4.5,0,6.8,2.3,6.8,2.3l-1.9,3.7c0,0-1.9-1.7-4.9-1.7c-1.3,0-2.6,0.6-2.6,1.8c0,2.8,9.8,2.5,9.8,9c0,3.4-2.9,6.1-7.7,6.1
						c-5,0-7.8-3-7.8-3L95.7,24z"/>
					<path class="st1" d="M121.7,9.4c5.8,0,8.9,4.2,8.9,9.6c0,0.6-0.1,1.9-0.1,1.9h-13.9c0.3,3.5,3,5.3,6.1,5.3
						c3.2,0,5.8-2.2,5.8-2.2l1.9,3.6c0,0-3.1,2.9-8.1,2.9c-6.7,0-10.8-4.8-10.8-10.6C111.5,13.7,115.7,9.4,121.7,9.4z M125.6,17.4
						c-0.1-2.7-1.8-4.2-4-4.2c-2.6,0-4.4,1.6-4.8,4.2H125.6z"/>
					<path class="st1" d="M135.7,14.1h-2.6v-4h2.7V4.3h4.9v5.8h4.6v4h-4.6V22c0,3.3,2.6,3.8,4,3.8c0.6,0,0.9-0.1,0.9-0.1v4.4
						c0,0-0.6,0.1-1.5,0.1c-2.8,0-8.4-0.8-8.4-7.6V14.1z"/>
				</g>
				<path class="st1" d="M41.6,3.5c0,1.9-1.6,3.5-3.5,3.5c-1.9,0-3.5-1.6-3.5-3.5c0-1.9,1.6-3.5,3.5-3.5C40,0,41.6,1.6,41.6,3.5z"/>
			</g>
		</g>
		<g>
			<path class="st2" d="M0.2,39.4h1.4V41H0.2V39.4z M0.2,43.3h1.3V53H0.2V43.3z"/>
			<path class="st2" d="M14.4,43.3h1.3v1.5c0,0.4,0,0.8,0,0.8h0c0.3-0.9,1.6-2.5,3.9-2.5c2.4,0,3.3,1.4,3.3,3.8V53h-1.3v-5.9
				c0-1.5-0.2-2.9-2.1-2.9c-1.7,0-3.1,1.1-3.6,2.8c-0.1,0.4-0.2,0.9-0.2,1.3V53h-1.3V43.3z"/>
			<path class="st2" d="M35.6,50.9c0,0,1.1,1.2,2.9,1.2c1.1,0,2-0.5,2-1.6c0-2.1-5.3-1.6-5.3-4.8c0-1.7,1.6-2.7,3.3-2.7
				c2.1,0,3,1.1,3,1.1l-0.6,1c0,0-0.8-0.9-2.4-0.9c-1,0-1.9,0.4-1.9,1.5c0,2.2,5.3,1.6,5.3,4.8c0,1.6-1.4,2.7-3.3,2.7
				c-2.4,0-3.6-1.4-3.6-1.4L35.6,50.9z"/>
			<path class="st2" d="M54.4,44.5h-1.3v-1.1h1.3v-2.8h1.3v2.8h2.4v1.1h-2.4v4.9c0,2.3,1.5,2.6,2.2,2.6c0.3,0,0.4,0,0.4,0v1.2
				c0,0-0.2,0-0.6,0c-1.1,0-3.4-0.4-3.4-3.6V44.5z"/>
			<path class="st2" d="M70.2,39.4h1.4V41h-1.4V39.4z M70.3,43.3h1.3V53h-1.3V43.3z"/>
			<path class="st2" d="M84.9,44.5h-1.3v-1.1h1.3v-2.8h1.3v2.8h2.4v1.1h-2.4v4.9c0,2.3,1.5,2.6,2.2,2.6c0.3,0,0.4,0,0.4,0v1.2
				c0,0-0.2,0-0.6,0c-1.1,0-3.4-0.4-3.4-3.6V44.5z"/>
			<path class="st2" d="M100.6,43.3h1.3v5.9c0,1.5,0.2,2.9,2.1,2.9c2.2,0,3.6-2,3.6-4.1v-4.7h1.3V53h-1.3v-1.5c0-0.4,0-0.8,0-0.8h0
				c-0.4,1-1.7,2.5-3.8,2.5c-2.3,0-3.3-1.2-3.3-3.8V43.3z"/>
			<path class="st2" d="M122.3,44.5H121v-1.1h1.3v-2.8h1.3v2.8h2.4v1.1h-2.4v4.9c0,2.3,1.5,2.6,2.2,2.6c0.3,0,0.4,0,0.4,0v1.2
				c0,0-0.2,0-0.6,0c-1.1,0-3.4-0.4-3.4-3.6V44.5z"/>
			<path class="st2" d="M142.3,43c2.7,0,4.1,2.1,4.1,4.5c0,0.2,0,0.7,0,0.7h-7.5c0.1,2.5,1.8,3.9,3.8,3.9c1.8,0,3-1.2,3-1.2l0.6,1
				c0,0-1.4,1.4-3.6,1.4c-2.9,0-5.1-2.1-5.1-5.1C137.5,45,139.6,43,142.3,43z M145,47.1c-0.1-2-1.3-3-2.8-3c-1.6,0-3.1,1-3.4,3H145z
				"/>
		</g>
	</g>
</g>
</svg>
